<svg xmlns="http://www.w3.org/2000/svg" width="800" height="800" viewBox="0 0 32 32" fill="none" xmlns:v="https://vecta.io/nano"><path fill-rule="evenodd" d="M16 31c7.732 0 14-6.268 14-14S23.732 3 16 3 2 9.268 2 17c0 2.511.661 4.867 1.818 6.905L2 31l7.315-1.696C11.301 30.385 13.579 31 16 31zm0-2.154A11.85 11.85 0 0 0 27.846 17 11.85 11.85 0 0 0 16 5.154 11.85 11.85 0 0 0 4.154 17a11.79 11.79 0 0 0 2.138 6.79l-1.061 3.979 4.049-1.012A11.79 11.79 0 0 0 16 28.846z" fill="#bfc8d0"/><path d="M28 16c0 6.627-5.373 12-12 12-2.528 0-4.873-.782-6.807-2.116l-4.102 1.025 1.075-4.031C4.801 20.931 4 18.559 4 16 4 9.373 9.373 4 16 4s12 5.373 12 12z" fill="url(#A)"/><g fill="#fff"><path fill-rule="evenodd" d="M16 30c7.732 0 14-6.268 14-14S23.732 2 16 2 2 8.268 2 16c0 2.511.661 4.867 1.818 6.905L2 30l7.315-1.696C11.301 29.385 13.579 30 16 30zm0-2.154A11.85 11.85 0 0 0 27.846 16 11.85 11.85 0 0 0 16 4.154 11.85 11.85 0 0 0 4.154 16a11.79 11.79 0 0 0 2.138 6.79l-1.061 3.979 4.049-1.012A11.79 11.79 0 0 0 16 27.846z"/><path d="M12.5 9.5c-.333-.669-.844-.609-1.359-.609-.922 0-2.359 1.104-2.359 3.16 0 1.684.742 3.528 3.243 6.286 2.414 2.662 5.585 4.039 8.218 3.992s3.174-2.312 3.174-3.078c0-.339-.21-.508-.355-.554l-2.928-1.384c-.377-.151-.573.053-.695.164-.341.325-1.018 1.284-1.25 1.5s-.577.106-.721.025c-.529-.212-1.964-.85-3.107-1.959-1.414-1.371-1.497-1.842-1.764-2.262-.213-.336-.057-.542.021-.632l.914-1.164c.189-.27.039-.679-.051-.934L12.5 9.5z"/></g><defs><linearGradient id="A" x1="26.5" y1="7" x2="4" y2="28" gradientUnits="userSpaceOnUse"><stop stop-color="#5bd066"/><stop offset="1" stop-color="#27b43e"/></linearGradient></defs></svg>