<svg xmlns="http://www.w3.org/2000/svg" width="800" height="800" viewBox="0 0 36 36" preserveAspectRatio="xMidYMid meet" xmlns:v="https://vecta.io/nano"><circle fill="#f4900c" cx="18" cy="19" r="17"/><circle fill="#ffcc4d" cx="18" cy="17" r="17"/><circle fill="#ffe8b6" cx="18" cy="18" r="14"/><circle fill="#ffac33" cx="18" cy="17" r="14"/><path fill="#ffe8b6" d="M9.543 10.856c0-.545.535-.763.535-.763l7.878-3.7l7.953 3.7s.548.122.548.767v.641H9.543v-.645z"/><g fill="#f4900c"><path d="M25.929 12.836c0-.584-.505-1.057-1.127-1.057H11.129a1.03 1.03 0 0 0-1.057 1.057c0 .397.204.739.529.92v.666h2.114v-.529h2.114v.529h2.114v-.529h2.114v.529h2.114v-.529h2.114v.529H25.4v-.693c.317-.188.529-.517.529-.893zM27.514 24a.793.793 0 0 1-.793.793H9.279a.793.793 0 1 1 0-1.586h17.443c.437 0 .792.355.792.793z"/><path d="M26.457 12.2a.529.529 0 0 1-.529.529H10.071a.53.53 0 0 1 0-1.058l15.857.003a.527.527 0 0 1 .529.526zm-14.271.614h11.629V14H12.186z"/></g><path fill="#ffd983" d="M12.714 20.829c0 .584-.316 1.057-.705 1.057h-.705c-.389 0-.705-.473-.705-1.057v-8.014c0-.584.316-1.057.705-1.057h.705c.389 0 .705.473.705 1.057v8.014zm12.686 0c0 .584-.315 1.057-.705 1.057h-.705c-.389 0-.705-.473-.705-1.057v-8.014c0-.584.315-1.057.705-1.057h.705c.389 0 .705.473.705 1.057v8.014zm-8.457 0c0 .584-.316 1.057-.705 1.057h-.705c-.389 0-.705-.473-.705-1.057v-8.014c0-.584.316-1.057.705-1.057h.705c.389 0 .705.473.705 1.057v8.014zm4.228 0c0 .584-.316 1.057-.705 1.057h-.704c-.389 0-.705-.473-.705-1.057v-8.014c0-.584.316-1.057.705-1.057h.704c.389 0 .705.473.705 1.057v8.014z"/><path fill="#ffcc4d" d="M25.929 21.357c0 .584-.473 1.057-1.057 1.057H11.129a1.057 1.057 0 1 1 0-2.114h13.743a1.06 1.06 0 0 1 1.057 1.057z"/><g fill="#ffd983"><path d="M26.986 22.414c0 .584-.473 1.057-1.057 1.057H10.071a1.057 1.057 0 1 1 0-2.114h15.857a1.06 1.06 0 0 1 1.058 1.057z"/><path d="M27.514 23.207a.793.793 0 0 1-.793.793H9.279a.793.793 0 1 1 0-1.586h17.443c.437 0 .792.355.792.793z"/></g><path fill="#ffcc4d" d="M25.929 12.286c0-.584-.505-1.057-1.127-1.057H11.129a1.03 1.03 0 0 0-1.057 1.057c0 .397.204.739.529.92v.666h2.114v-.529h2.114v.529h2.114v-.529h2.114v.529h2.114v-.529h2.114v.529H25.4v-.693c.317-.188.529-.517.529-.893z"/><path fill="#ffd983" d="M9.543 11.463c0-.545.535-.763.535-.763L17.956 7l7.953 3.7s.548.122.548.767v.291H9.543v-.295z"/><path fill="#ffac33" d="M18 8.343l-5.999 2.803c-.545.231-.363.611.001.611h11.97c.562 0 .429-.429-.017-.661L18 8.343z"/><path fill="#ffd983" d="M26.457 11.757a.529.529 0 0 1-.529.529H10.071a.53.53 0 0 1 0-1.058l15.857.003a.527.527 0 0 1 .529.526z"/></svg>