<svg xmlns="http://www.w3.org/2000/svg" xmlns:xlink="http://www.w3.org/1999/xlink" height="800" width="800" viewBox="0 0 512 512" xmlns:v="https://vecta.io/nano"><path d="M512 484.174a16.7 16.7 0 0 1-16.696 16.696H16.696A16.7 16.7 0 0 1 0 484.174V27.826A16.7 16.7 0 0 1 16.696 11.13h478.609a16.7 16.7 0 0 1 16.696 16.696v456.348z" fill="#d1e7f8"/><path d="M495.304 11.13H256v489.74h239.304c9.223 0 16.696-7.473 16.696-16.696V27.826c0-9.223-7.473-16.696-16.696-16.696z" fill="#c2dff6"/><path d="M422.957 428.522c-9.223 0-16.696-7.473-16.696-16.696V100.174c0-9.223 7.473-16.696 16.696-16.696s16.696 7.473 16.696 16.696v311.652c-.001 9.223-7.474 16.696-16.696 16.696z" fill="#554431"/><path d="M89.043 428.522c-9.223 0-16.696-7.473-16.696-16.696V100.174c0-9.223 7.473-16.696 16.696-16.696s16.696 7.473 16.696 16.696v311.652c0 9.223-7.473 16.696-16.696 16.696z" fill="#6a563d"/><g fill="#554431"><use xlink:href="#B"/><use xlink:href="#B" x="-66.783"/></g><g fill="#6a563d"><path d="M222.609 328.348c-9.223 0-16.696-7.473-16.696-16.696V100.174c0-9.223 7.473-16.696 16.696-16.696s16.696 7.473 16.696 16.696v211.478c-.001 9.223-7.474 16.696-16.696 16.696z"/><use xlink:href="#B" x="-200.348"/><circle cx="155.826" cy="378.435" r="16.696"/><circle cx="222.609" cy="378.435" r="16.696"/></g><g fill="#554431"><circle cx="289.391" cy="378.435" r="16.696"/><circle cx="356.174" cy="378.435" r="16.696"/></g><defs ><path id="B" d="M356.174 328.348c-9.223 0-16.696-7.473-16.696-16.696V100.174c0-9.223 7.473-16.696 16.696-16.696s16.696 7.473 16.696 16.696v211.478c0 9.223-7.473 16.696-16.696 16.696z"/></defs></svg>