<svg xmlns="http://www.w3.org/2000/svg" xmlns:xlink="http://www.w3.org/1999/xlink" viewBox="0 0 512 512" xmlns:v="https://vecta.io/nano"><path d="M418.472 33.67H93.528v470.313h410.455V119.182z" fill="#f2f2f2"/><path d="M161.144 33.67H93.528v470.313h370.99zm257.328 85.512h85.511L418.472 33.67z" fill="#e5e5e5"/><path d="M214.313 298.756H24.05c-8.855 0-16.033-7.179-16.033-16.033V24.05c0-8.855 7.179-16.033 16.033-16.033h190.263c8.855 0 16.033 7.179 16.033 16.033v258.672c.001 8.855-7.178 16.034-16.033 16.034z" fill="gray"/><circle cx="358.614" cy="367.165" r="111.165" fill="#f7d04a"/><path d="M388.543 448.401c-61.395 0-111.165-49.771-111.165-111.165 0-23.049 7.015-44.457 19.025-62.211-29.538 19.982-48.954 53.793-48.954 92.14 0 61.395 49.771 111.165 111.165 111.165 38.347 0 72.158-19.416 92.14-48.954-17.754 12.01-39.163 19.025-62.211 19.025z" fill="#f3b41b"/><path d="M33.67 33.67h171.023v42.756H33.67z" fill="#62c9cc"/><path d="M124.17 33.67L81.414 76.426h32.067l42.756-42.756z" fill="#f2f2f2"/><path d="M33.67 102.079h34.205v34.205H33.67zm68.409 0h34.205v34.205h-34.205zm68.41 0h34.205v34.205h-34.205zM33.67 170.489h34.205v34.205H33.67zm68.409 0h34.205v34.205h-34.205zM33.67 238.898h34.205v34.205H33.67zm68.409 0h34.205v34.205h-34.205z" fill="#ef9d3c"/><path d="M170.489 170.489v68.409 34.204h34.204v-34.204-68.409z" fill="#f7d04a"/><path d="M409.312 219.039l24.187-24.186L330.707 92.061l-30.232-6.046 6.046 30.233z" fill="#62c9cc"/><path d="M330.707 92.061l-30.232-6.047 6.046 30.234 9.956 9.955 24.186-24.187z" fill="#f7d04a"/><path d="M456.93 243.981l1.511-1.511c6.262-6.262 6.262-16.413 0-22.674l-43.082-43.082-24.186 24.186 43.082 43.082c6.262 6.261 16.413 6.261 22.675-.001z" fill="#50a9a9"/><path d="M503.983 409.386a8.02 8.02 0 0 0 8.017-8.017V119.182a8.02 8.02 0 0 0-2.347-5.669l-85.511-85.511a8.02 8.02 0 0 0-5.669-2.347h-180.11V24.05c0-13.261-10.789-24.05-24.05-24.05H24.05C10.789 0 0 10.789 0 24.05v258.672c0 13.261 10.789 24.05 24.05 24.05h61.461v197.211A8.02 8.02 0 0 0 93.528 512h410.455a8.02 8.02 0 0 0 8.017-8.017v-59.858a8.02 8.02 0 0 0-8.017-8.017c-4.429 0-8.017 3.588-8.017 8.017v51.841H101.545V306.772h112.768c13.261 0 24.05-10.789 24.05-24.05V144.83a8.02 8.02 0 0 0-8.017-8.017c-4.429 0-8.017 3.588-8.017 8.017v137.893a8.03 8.03 0 0 1-8.017 8.017H24.05a8.03 8.03 0 0 1-8.017-8.017V24.05a8.03 8.03 0 0 1 8.017-8.017h190.263a8.03 8.03 0 0 1 8.017 8.017v78.029a8.02 8.02 0 0 0 8.017 8.017c4.429 0 8.017-3.588 8.017-8.017V41.687h172.119c-.012.177-.027.354-.027.534v76.96a8.02 8.02 0 0 0 8.017 8.017h76.96c.181 0 .357-.015.534-.027V401.37c0 4.428 3.588 8.016 8.016 8.016zM426.489 53.024l58.141 58.141h-58.141V53.024zM198.28 367.699h-53.445a8.02 8.02 0 0 0-8.017 8.017 8.02 8.02 0 0 0 8.017 8.017h53.445a8.02 8.02 0 0 0 8.017-8.017 8.02 8.02 0 0 0-8.017-8.017zm0 42.756h-53.445a8.02 8.02 0 0 0-8.017 8.017c0 4.429 3.588 8.017 8.017 8.017h53.445a8.02 8.02 0 0 0 8.017-8.017 8.02 8.02 0 0 0-8.017-8.017zm65.398-101.706c-3.926-2.043-8.768-.522-10.815 3.404-8.786 16.859-13.431 35.882-13.431 55.012 0 65.717 53.465 119.182 119.182 119.182s119.182-53.465 119.182-119.182-53.466-119.182-119.182-119.182c-32.766 0-63.308 13.023-86.001 36.671a8.02 8.02 0 0 0 .233 11.335c3.196 3.067 8.27 2.962 11.335-.233 19.641-20.467 46.076-31.739 74.434-31.739 56.876 0 103.148 46.272 103.148 103.148S415.49 470.313 358.614 470.313s-103.148-46.272-103.148-103.148c0-16.798 3.908-32.813 11.616-47.601a8.02 8.02 0 0 0-3.404-10.815zm60.731 110.257a8.02 8.02 0 0 0-8.017 8.017c0 4.429 3.588 8.017 8.017 8.017h24.05v9.086a8.02 8.02 0 0 0 8.017 8.017 8.02 8.02 0 0 0 8.017-8.017v-9.086h12.292c13.261 0 24.05-10.789 24.05-24.05v-26.722c0-13.217-10.719-23.98-23.92-24.05l-12.423-.366v-44.528h28.326a8.02 8.02 0 0 0 8.017-8.017 8.02 8.02 0 0 0-8.017-8.017h-28.326v-9.086a8.02 8.02 0 0 0-8.017-8.017 8.02 8.02 0 0 0-8.017 8.017v9.086h-8.017c-13.261 0-24.05 10.789-24.05 24.05v27.791c0 13.217 10.719 23.98 23.92 24.05l8.147.239v43.585h-24.049zm16.27-59.855l-.236-.003a8.03 8.03 0 0 1-8.017-8.017V323.34a8.03 8.03 0 0 1 8.017-8.017h8.017v44.057l-7.781-.229zm23.814 16.741l12.056.355.236.003a8.03 8.03 0 0 1 8.017 8.017v26.722a8.03 8.03 0 0 1-8.017 8.017h-12.292v-43.114zM212.71 33.67a8.02 8.02 0 0 0-8.017-8.017H33.67a8.02 8.02 0 0 0-8.017 8.017v42.756a8.02 8.02 0 0 0 8.017 8.017h171.023a8.02 8.02 0 0 0 8.017-8.017V33.67zm-16.034 34.739H41.687V41.687h154.99v26.722zm-120.785 33.67a8.02 8.02 0 0 0-8.017-8.017H33.67a8.02 8.02 0 0 0-8.017 8.017v34.205a8.02 8.02 0 0 0 8.017 8.017h34.205a8.02 8.02 0 0 0 8.017-8.017v-34.205zm-16.033 26.188H41.687v-18.171h18.171v18.171z"/><use xlink:href="#B"/><use xlink:href="#B" x="68.409"/><path d="M75.891 170.489a8.02 8.02 0 0 0-8.017-8.017H33.67a8.02 8.02 0 0 0-8.017 8.017v34.205a8.02 8.02 0 0 0 8.017 8.017h34.205a8.02 8.02 0 0 0 8.017-8.017v-34.205zm-16.033 26.187H41.687v-18.171h18.171v18.171zm84.443-26.187a8.02 8.02 0 0 0-8.017-8.017h-34.205a8.02 8.02 0 0 0-8.017 8.017v34.205a8.02 8.02 0 0 0 8.017 8.017h34.205a8.02 8.02 0 0 0 8.017-8.017v-34.205zm-16.034 26.187h-18.171v-18.171h18.171v18.171zm-60.392 34.205H33.67a8.02 8.02 0 0 0-8.017 8.017v34.205a8.02 8.02 0 0 0 8.017 8.017h34.205a8.02 8.02 0 0 0 8.017-8.017v-34.205a8.02 8.02 0 0 0-8.017-8.017zm-8.017 34.205H41.687v-18.171h18.171v18.171zm76.426-34.205h-34.205a8.02 8.02 0 0 0-8.017 8.017v34.205a8.02 8.02 0 0 0 8.017 8.017h34.205a8.02 8.02 0 0 0 8.017-8.017v-34.205a8.02 8.02 0 0 0-8.017-8.017zm-8.017 34.205h-18.171v-18.171h18.171v18.171zm76.426-102.614h-34.205a8.02 8.02 0 0 0-8.017 8.017v102.614a8.02 8.02 0 0 0 8.017 8.017h34.205a8.02 8.02 0 0 0 8.017-8.017V170.489c0-4.429-3.588-8.017-8.017-8.017zm-8.017 102.614h-18.171v-86.58h18.171v86.58zM336.377 86.391a8.02 8.02 0 0 0-4.097-2.192l-29.706-5.941-14.301-15.769c-2.975-3.282-8.047-3.529-11.324-.554a8.02 8.02 0 0 0-.554 11.324l17.032 18.398 5.232 26.161a8.02 8.02 0 0 0 2.192 4.097l127.735 127.736c4.689 4.688 10.847 7.031 17.006 7.031s12.317-2.343 17.005-7.031l1.512-1.512c9.375-9.377 9.375-24.635 0-34.011l-1.134-1.134 12.471-12.471c3.141-3.144 3.074-8.422-.15-11.482l-43.667-41.467c-3.209-3.05-8.283-2.917-11.333.293s-2.917 8.284.293 11.333l37.701 35.802-6.654 6.654L336.377 86.391zm-25.683 9.843l16.061 3.212 77.266 77.268-12.848 12.848-77.268-77.266-3.211-16.062zm142.079 140.567l-1.51 1.511a8.03 8.03 0 0 1-11.338 0l-37.412-37.413 12.847-12.848 37.413 37.413a8.03 8.03 0 0 1 0 11.337z"/><defs ><path id="B" d="M144.301 102.079a8.02 8.02 0 0 0-8.017-8.017h-34.205a8.02 8.02 0 0 0-8.017 8.017v34.205a8.02 8.02 0 0 0 8.017 8.017h34.205a8.02 8.02 0 0 0 8.017-8.017v-34.205zm-16.034 26.188h-18.171v-18.171h18.171v18.171z"/></defs></svg>