<svg xmlns="http://www.w3.org/2000/svg" width="800" height="800" viewBox="0 0 14 14" xmlns:v="https://vecta.io/nano"><g fill="#37474f"><path d="M6.714 1.286h.571v10.286h-.571z"/><path d="M7.519 9.221l.404.404-2.868 2.868-.404-.404z"/><path d="M9.36 12.092l-.404.404-2.868-2.868.404-.404z"/></g><path fill="#cfd8dc" d="M1.286 2.143h11.429v8H1.286z"/><g fill="#607d8b" transform="matrix(.28571 0 0 .28571 .142857 -.142857)"><path d="M3 7h42v4H3zm0 28h42v2H3z"/><circle cx="31.5" cy="43.5" r="1.5"/><circle cx="16.5" cy="43.5" r="1.5"/></g><g fill="#c51162"><path d="M7.571 6.971L5.857 5.257 3.543 7.543l.629.629 1.686-1.714 1.714 1.714 2.314-2.286-.629-.629z"/><path d="M10.429 6.714l-2-2h2z"/></g></svg>