<svg xmlns="http://www.w3.org/2000/svg" viewBox="0 0 55.764 55.764" xmlns:v="https://vecta.io/nano"><path d="M9.882 35.292h2v14h-2z" fill="#66cedb"/><path d="M17.329 48.251l10.902 5.378c.385.192.836.141 1.206-.075l21.815-12.743a1.29 1.29 0 0 0 .63-1.105 1.28 1.28 0 0 0-.452-.976c-.287-.242-.662-.348-1.034-.281l-18.444 3.207.809.809a3.8 3.8 0 0 1 1.121 2.706c0 2.111-1.718 3.828-3.828 3.828-1.024 0-1.984-.398-2.707-1.122l-5.172-5.171 1.414-1.414 5.172 5.171c.341.34.811.536 1.293.536a1.83 1.83 0 0 0 1.828-1.829c0-.488-.19-.802-.535-1.147l-7.879-7.731h-9.586v12h3c.155 0 .309-.11.447-.041z" fill="#f8cf26"/><g fill="#ee8b26"><circle cx="35.882" cy="19.5" r="1"/><circle cx="27.882" cy="13.5" r="1"/><path d="M16.749 19.602l15.133 15.945 15.133-15.945c3.822-4.026 3.822-10.578 0-14.604-1.835-1.934-4.271-2.999-6.858-2.999s-5.024 1.065-6.859 2.999l-.689.727c-.379.398-1.072.398-1.451 0l-.689-.727c-1.835-1.934-4.271-2.999-6.859-2.999s-5.023 1.065-6.858 2.999c-3.825 4.026-3.825 10.578-.003 14.604zM28.882 26h-2v-2h2v2zm4 0h-2v-2h2v2zm4 0h-2v-2h2v2zm2-6.5c0 1.654-1.346 3-3 3s-3-1.346-3-3 1.346-3 3-3 3 1.345 3 3zm-2.74-9.173l1.48 1.346-10 11-1.48-1.346 10-11zm-8.26.173c1.654 0 3 1.346 3 3s-1.346 3-3 3-3-1.346-3-3 1.346-3 3-3z"/></g><path d="M52.718 37.195a3.27 3.27 0 0 0-2.664-.719l-19.832 3.449-5.633-5.487c-.188-.187-.441-.146-.707-.146h-10c0-1-.447-1-1-1h-4-7v2h6v14h-6v2h7 4c.553 0 1-1 1-1h2.764l10.691 5.199c.463.231.963.274 1.463.273.568 0 1.137-.186 1.645-.483l21.817-12.743c.999-.584 1.62-1.675 1.62-2.832 0-.967-.425-1.888-1.164-2.511zM11.882 49.292h-2v-14h2v14zm39.371-8.5L29.438 53.518a1.26 1.26 0 0 1-1.206.038L17.33 48.251c-.139-.069-.293.041-.448.041h-3v-12h9.586l7.879 7.732c.345.345.535.732.535 1.22 0 1.008-.82 1.792-1.828 1.792-.482 0-.952-.214-1.293-.554l-5.172-5.181-1.414 1.409 5.172 5.169A3.8 3.8 0 0 0 30.054 49c2.11 0 3.828-1.718 3.828-3.829 0-1.022-.398-1.984-1.121-2.707l-.809-.809 18.444-3.208c.372-.067.747.037 1.034.279s.452.595.452.971a1.27 1.27 0 0 1-.629 1.095zM37.624 11.68l-10 10.999-1.481-1.346 10-10.999zm-9.742 4.82c1.654 0 3-1.346 3-3s-1.346-3-3-3-3 1.346-3 3 1.346 3 3 3zm0-4a1 1 0 1 1 0 2 1 1 0 1 1 0-2zm5 7c0 1.654 1.346 3 3 3s3-1.346 3-3-1.346-3-3-3-3 1.345-3 3zm4 0a1 1 0 1 1-2 0 1 1 0 1 1 2 0zm-5.726 18.188a1 1 0 0 0 .726.312c.274 0 .536-.113.726-.312L48.466 20.98c4.542-4.786 4.542-12.573 0-17.358C46.249 1.286 43.298 0 40.156 0c-3.126 0-6.062 1.272-8.274 3.584C29.67 1.272 26.734 0 23.608 0c-3.142 0-6.093 1.286-8.31 3.622-4.542 4.786-4.542 12.573 0 17.358l15.858 16.708zM16.749 4.998c1.835-1.934 4.27-2.999 6.858-2.999s5.024 1.065 6.859 2.999l.689.727c.379.398 1.072.398 1.451 0l.689-.727c1.835-1.934 4.27-2.999 6.859-2.999s5.023 1.065 6.858 2.999c3.822 4.026 3.822 10.578 0 14.604l-15.13 15.945-15.133-15.945c-3.822-4.026-3.822-10.578 0-14.604zM26.882 24h2v2h-2zm4 0h2v2h-2zm4 0h2v2h-2z"/></svg>