<svg xmlns="http://www.w3.org/2000/svg" width="800" height="800" viewBox="0 -196 1416 1416" xmlns:v="https://vecta.io/nano"><path d="M324.359 22.141h1037.284c18.819 0 33.211 14.391 33.211 33.211v645.397c0 18.819-14.391 33.211-33.211 33.211H324.359c-18.819 0-33.211-14.391-33.211-33.211V55.351c0-18.819 14.391-33.211 33.211-33.211z" fill="#9dbe87"/><path d="M1361.643 756.099H324.359c-30.997 0-55.351-24.355-55.351-55.351V55.351C269.008 24.355 293.362 0 324.359 0h1037.284c30.997 0 55.351 24.355 55.351 55.351v645.397c0 29.89-24.355 55.351-55.351 55.351zM324.359 44.281c-6.642 0-11.07 4.428-11.07 11.07v645.397c0 6.642 4.428 11.07 11.07 11.07h1037.284c6.642 0 11.07-4.428 11.07-11.07V55.351c0-6.642-4.428-11.07-11.07-11.07H324.359z" fill="#131313"/><path d="M230.262 116.238h1038.391c18.819 0 33.211 14.391 33.211 33.211v645.397c0 18.819-14.391 33.211-33.211 33.211H230.262c-18.819 0-33.211-14.391-33.211-33.211V149.449c0-18.819 14.391-33.211 33.211-33.211z" fill="#9dbe87"/><path d="M1267.546 850.197H230.262c-30.997 0-55.351-24.355-55.351-55.351V149.449c0-30.997 24.355-55.351 55.351-55.351h1038.391c30.997 0 55.351 24.355 55.351 55.351v645.397c-1.107 29.89-25.462 55.351-56.458 55.351zM230.262 138.378c-6.642 0-11.07 4.428-11.07 11.07v645.397c0 6.642 4.428 11.07 11.07 11.07h1038.391c6.642 0 11.07-4.428 11.07-11.07V149.449c0-6.642-4.428-11.07-11.07-11.07H230.262z" fill="#131313"/><path d="M143.914 208.121h1038.391c18.819 0 33.211 14.391 33.211 33.211v645.397c0 18.819-14.391 33.211-33.211 33.211H143.914c-18.819 0-33.211-14.391-33.211-33.211V241.332c0-17.712 14.391-33.211 33.211-33.211z" fill="#9dbe87"/><path d="M1182.305 942.08H143.914c-30.997 0-55.351-24.355-55.351-55.351V241.332c0-30.997 24.355-55.351 55.351-55.351h1038.391c30.997 0 55.351 24.355 55.351 55.351v645.397c0 29.89-25.462 55.351-55.351 55.351zM143.914 230.262c-6.642 0-11.07 4.428-11.07 11.07v645.397c0 6.642 4.428 11.07 11.07 11.07h1038.391c6.642 0 11.07-4.428 11.07-11.07V241.332c0-6.642-4.428-11.07-11.07-11.07H143.914z" fill="#131313"/><path d="M55.351 290.041h1038.391c18.819 0 33.211 14.391 33.211 33.211v645.397c0 18.819-14.391 33.211-33.211 33.211H55.351c-18.819 0-33.211-14.391-33.211-33.211V323.252c0-17.712 14.391-33.211 33.211-33.211z" fill="#9dbe87"/><path d="M1093.743 1024H55.351C24.355 1024 0 999.645 0 968.649V323.252c0-30.997 24.355-55.351 55.351-55.351h1038.391c30.997 0 55.351 24.355 55.351 55.351v645.397c0 30.997-25.462 55.351-55.351 55.351zM55.351 312.182c-6.642 0-11.07 4.428-11.07 11.07v645.397c0 6.642 4.428 11.07 11.07 11.07h1038.391c6.642 0 11.07-4.428 11.07-11.07V323.252c0-6.642-4.428-11.07-11.07-11.07H55.351z" fill="#131313"/><path d="M954.257 902.227H194.837c0-52.03-43.174-95.204-95.204-95.204V472.701c52.03 0 95.204-43.174 95.204-95.204h759.421c0 52.03 43.174 95.204 95.204 95.204v334.322c-53.137 0-95.204 43.174-95.204 95.204z" fill="#d6f0c5"/><g fill="#131313"><path d="M954.257 924.368h-759.42c-12.177 0-22.141-9.963-22.141-22.141 0-39.853-33.211-73.064-73.064-73.064-12.177 0-22.141-9.963-22.141-22.141V472.701c0-12.177 9.963-22.141 22.141-22.141 39.853 0 73.064-33.211 73.064-73.064 0-12.177 9.963-22.141 22.141-22.141h759.421c12.177 0 22.141 9.963 22.141 22.141 0 39.853 33.211 73.064 73.064 73.064 12.177 0 22.141 9.963 22.141 22.141v334.322c0 12.177-9.963 22.141-22.141 22.141-39.853 0-73.064 33.211-73.064 73.064 0 12.177-9.963 22.141-22.141 22.141zm-739.494-44.281h718.461c8.856-46.495 46.495-84.134 92.99-92.99v-294.47c-46.495-8.856-84.134-46.495-92.99-92.99H214.763c-8.856 46.495-46.495 84.134-92.99 92.99v293.362c46.495 9.963 84.134 47.602 92.99 94.097zm361.998-89.67c-35.425 0-73.064-13.284-99.632-47.602-7.749-9.963-5.535-23.248 3.321-30.997 9.963-7.749 23.248-5.535 30.997 3.321 26.569 34.318 67.529 35.425 94.097 26.569 22.141-7.749 35.425-22.141 35.425-37.639 0-14.391-34.318-24.355-64.208-33.211-46.495-14.391-105.168-30.997-105.168-86.348 0-26.569 16.605-50.923 45.388-65.315 35.425-17.712 95.204-24.355 151.663 16.605 9.963 7.749 12.177 21.034 4.428 30.997s-21.034 12.177-30.997 4.428c-37.639-27.676-79.706-26.569-105.168-13.284-13.284 6.642-22.141 16.605-22.141 26.569 0 21.034 30.997 30.997 73.064 44.281 45.388 13.284 95.204 28.783 95.204 75.278 0 34.318-25.462 65.315-65.315 79.706-11.07 3.321-26.569 6.642-40.96 6.642z"/><path d="M574.547 549.085c-12.177 0-22.141-9.963-22.141-22.141v-48.709c0-12.177 9.963-22.141 22.141-22.141s22.141 9.963 22.141 22.141v48.709c0 13.284-9.963 22.141-22.141 22.141zm0 283.399c-12.177 0-22.141-9.963-22.141-22.141v-36.532c0-12.177 9.963-22.141 22.141-22.141s22.141 9.963 22.141 22.141v36.532c0 12.177-9.963 22.141-22.141 22.141z"/></g><path d="M244.653 653.146a40.96 40.96 0 1 0 81.92 0 40.96 40.96 0 1 0-81.92 0z" fill="#aecd99"/><path d="M285.613 715.139c-34.318 0-63.101-27.676-63.101-63.101s27.676-63.101 63.101-63.101c34.318 0 63.101 27.676 63.101 63.101s-28.783 63.101-63.101 63.101zm0-80.813c-9.963 0-18.819 7.749-18.819 18.819s7.749 18.819 18.819 18.819c9.963 0 18.819-7.749 18.819-18.819s-8.856-18.819-18.819-18.819z" fill="#131313"/><path d="M824.735 653.146a40.96 40.96 0 1 0 81.92 0 40.96 40.96 0 1 0-81.92 0z" fill="#aecd99"/><path d="M865.695 715.139c-34.318 0-63.101-27.676-63.101-63.101s27.676-63.101 63.101-63.101c34.318 0 63.101 27.676 63.101 63.101s-28.783 63.101-63.101 63.101zm0-80.813c-9.963 0-18.819 7.749-18.819 18.819s7.749 18.819 18.819 18.819 18.819-7.749 18.819-18.819-8.856-18.819-18.819-18.819z" fill="#131313"/></svg>