<svg xmlns="http://www.w3.org/2000/svg" width="800" height="800" viewBox="0 0 64 64" fill="none" fill-rule="evenodd" xmlns:v="https://vecta.io/nano"><path stroke="#ed9111" stroke-linecap="round" stroke-width="4" d="M23.003 55.446c2.948 1.222 6.18 1.897 9.569 1.897h0c3.39 0 6.622-.675 9.569-1.897 3.056-1.267 5.806-3.123 8.108-5.425m5.425-8.108c1.222-2.948 1.897-6.18 1.897-9.569s-.675-6.622-1.897-9.569c-1.267-3.056-3.123-5.806-5.425-8.108M42.142 9.24c-2.948-1.222-6.18-1.897-9.569-1.897s-6.622.675-9.569 1.897c-3.056 1.267-5.806 3.123-8.108 5.425m-5.425 8.108c-1.222 2.948-1.897 6.18-1.897 9.569s.675 6.622 1.897 9.569c1.267 3.056 3.123 5.806 5.425 8.108"/><g transform="matrix(-1 0 0 1 47 13)"><path fill="#80d25b" d="M7.314 27.995c3.936 2.86 10.549 1.752 13.432-2.215s4.391-19.446 4.391-19.446-14.964 4.445-18.526 8.368-3.234 10.432.703 13.292z"/><g stroke="#22ba8e" stroke-linecap="round" stroke-width="2"><path d="M22 10s-9.114 5.649-12.428 16.053C8.719 28.73 7.436 30.64 6 32"/><path d="M17 24l-6.065-.285L8 18m11 0l-4.541-.803L13 14"/></g></g><path d="M47.474 12.34l-12.525.352L40.396 2zm4.349 34.266l.304-12.526 10.392 6zm-34.35 6.177L29.92 51.34l-4.495 11.126zm-5.929-36.075l1.659 12.42L2 24.827z" fill="#ffaf40"/></svg>